<mxfile host="65bd71144e">
    <diagram id="GHIaNYSvT5WCBCYUY1Y7" name="Page-1">
        <mxGraphModel dx="483" dy="419" grid="1" gridSize="10" guides="1" tooltips="1" connect="1" arrows="1" fold="1" page="1" pageScale="1" pageWidth="850" pageHeight="1100" math="0" shadow="0">
            <root>
                <mxCell id="0"/>
                <mxCell id="1" parent="0"/>
                <mxCell id="2" value="Navigation Bar" style="whiteSpace=wrap;html=1;fillColor=#1ba1e2;fontColor=#ffffff;strokeColor=#006EAF;" vertex="1" parent="1">
                    <mxGeometry x="70" y="20" width="390" height="20" as="geometry"/>
                </mxCell>
                <mxCell id="4" value="&lt;p&gt;&lt;font style=&quot;font-size: 14px;&quot;&gt;Employee Registration&lt;/font&gt;&lt;/p&gt;" style="whiteSpace=wrap;html=1;" vertex="1" parent="1">
                    <mxGeometry x="150" y="80" width="210" height="40" as="geometry"/>
                </mxCell>
                <mxCell id="7" value="Email" style="whiteSpace=wrap;html=1;" vertex="1" parent="1">
                    <mxGeometry x="180" y="150" width="150" height="40" as="geometry"/>
                </mxCell>
                <mxCell id="8" value="First Name" style="whiteSpace=wrap;html=1;" vertex="1" parent="1">
                    <mxGeometry x="180" y="200" width="150" height="40" as="geometry"/>
                </mxCell>
                <mxCell id="9" value="Last Name" style="whiteSpace=wrap;html=1;" vertex="1" parent="1">
                    <mxGeometry x="180" y="250" width="150" height="40" as="geometry"/>
                </mxCell>
                <mxCell id="10" value="&amp;nbsp;Salary" style="whiteSpace=wrap;html=1;" vertex="1" parent="1">
                    <mxGeometry x="180" y="300" width="150" height="40" as="geometry"/>
                </mxCell>
                <mxCell id="11" value="Phone" style="whiteSpace=wrap;html=1;" vertex="1" parent="1">
                    <mxGeometry x="180" y="350" width="150" height="40" as="geometry"/>
                </mxCell>
                <mxCell id="12" value="DOB" style="whiteSpace=wrap;html=1;" vertex="1" parent="1">
                    <mxGeometry x="180" y="400" width="150" height="40" as="geometry"/>
                </mxCell>
            </root>
        </mxGraphModel>
    </diagram>
</mxfile>